<?xml version="1.0" encoding="utf-8"?>
<!-- Generator: Adobe Illustrator 27.3.1, SVG Export Plug-In . SVG Version: 6.00 Build 0)  -->
<svg version="1.1" id="Layer_1" focusable="false" xmlns="http://www.w3.org/2000/svg" xmlns:xlink="http://www.w3.org/1999/xlink"
	 x="0px" y="0px" viewBox="0 0 16 16" style="enable-background:new 0 0 16 16;" xml:space="preserve">
<style type="text/css">
	.st0{fill:#FF0000;}
</style>
<path class="st0" d="M9,8c0,0.6-0.4,1-1,1S7,8.6,7,8s0.4-1,1-1S9,7.4,9,8z M10.1,10.1l0.7,0.7C11.6,10.1,12,9.1,12,8
	s-0.4-2.1-1.2-2.8l-0.7,0.7C10.7,6.4,11,7.2,11,8S10.7,9.6,10.1,10.1z M5.2,10.8l0.7-0.7C5.3,9.6,5,8.8,5,8s0.3-1.6,0.9-2.1L5.2,5.2
	C4.4,5.9,4,6.9,4,8S4.4,10.1,5.2,10.8z M12.2,12.2l0.7,0.7c1.3-1.3,2.1-3,2.1-5s-0.8-3.7-2.1-5l-0.7,0.7C13.3,4.8,14,6.3,14,8
	S13.3,11.2,12.2,12.2z M3.1,13l0.7-0.7C2.7,11.2,2,9.7,2,8s0.7-3.2,1.8-4.2L3.1,3C1.8,4.3,1,6.1,1,8S1.8,11.7,3.1,13z"/>
</svg>
